<svg id="visual" viewBox="0 0 1920 1080" width="1920" height="1080" xmlns="http://www.w3.org/2000/svg" xmlns:xlink="http://www.w3.org/1999/xlink" version="1.1"><rect x="0" y="0" width="1920" height="1080" fill="#000000"></rect><defs><linearGradient id="grad1_0" x1="43.8%" y1="100%" x2="100%" y2="0%"><stop offset="14.444444444444446%" stop-color="#000000" stop-opacity="1"></stop><stop offset="85.55555555555554%" stop-color="#000000" stop-opacity="1"></stop></linearGradient></defs><defs><linearGradient id="grad2_0" x1="0%" y1="100%" x2="56.3%" y2="0%"><stop offset="14.444444444444446%" stop-color="#000000" stop-opacity="1"></stop><stop offset="85.55555555555554%" stop-color="#000000" stop-opacity="1"></stop></linearGradient></defs><g transform="translate(1920, 1080)"><path d="M-486 0C-459.5 -76.5 -433 -153.1 -395.8 -228.5C-358.6 -303.9 -310.7 -378.2 -243 -420.9C-175.3 -463.6 -87.6 -474.8 0 -486L0 0Z" fill="#ff513f"></path></g><g transform="translate(0, 0)"><path d="M486 0C439.6 65.1 393.2 130.2 358.5 207C323.8 283.8 300.8 372.4 243 420.9C185.2 469.3 92.6 477.7 0 486L0 0Z" fill="#ff513f"></path></g></svg>